/* XPM */
static char * pcsceventsicon_xpm[] = {
"48 48 678 2",
"  	c None",
". 	c #5E605C",
"+ 	c #555753",
"@ 	c #5A5B58",
"# 	c #5D5F5B",
"$ 	c #7C7D7A",
"% 	c #EEEEED",
"& 	c #929391",
"* 	c #585A56",
"= 	c #F8F8F8",
"- 	c #FFFFFF",
"; 	c #FEFEFE",
"> 	c #929491",
", 	c #767674",
"' 	c #E8E8E8",
") 	c #757774",
"! 	c #676767",
"~ 	c #747474",
"{ 	c #EDEDED",
"] 	c #5B5D59",
"^ 	c #747674",
"/ 	c #5D5D5D",
"( 	c #595959",
"_ 	c #6D6D6D",
": 	c #ECECEC",
"< 	c #919290",
"[ 	c #575956",
"} 	c #6F716D",
"| 	c #70716E",
"1 	c #6F706D",
"2 	c #61635F",
"3 	c #747573",
"4 	c #555555",
"5 	c #515151",
"6 	c #666666",
"7 	c #EBEBEB",
"8 	c #5B5C59",
"9 	c #616260",
"0 	c #6E706C",
"a 	c #595A56",
"b 	c #A8A9A7",
"c 	c #FAFAFA",
"d 	c #838582",
"e 	c #7D7F7C",
"f 	c #4D4D4D",
"g 	c #484848",
"h 	c #5E5E5E",
"i 	c #EAEAEA",
"j 	c #939592",
"k 	c #6B6C69",
"l 	c #D4D4D4",
"m 	c #8C8D8A",
"n 	c #3F413D",
"o 	c #5A5D58",
"p 	c #AFB0AE",
"q 	c #4C4C4C",
"r 	c #444444",
"s 	c #404040",
"t 	c #585858",
"u 	c #E9E9E9",
"v 	c #939492",
"w 	c #D2D2D1",
"x 	c #919390",
"y 	c #40413E",
"z 	c #7D7E7B",
"A 	c #656565",
"B 	c #3C3C3C",
"C 	c #383838",
"D 	c #CECECE",
"E 	c #A0A19F",
"F 	c #C2C2C2",
"G 	c #C0C0C0",
"H 	c #BBBBBB",
"I 	c #737572",
"J 	c #7B7C79",
"K 	c #343434",
"L 	c #303030",
"M 	c #4A4A4A",
"N 	c #E7E7E7",
"O 	c #929390",
"P 	c #626460",
"Q 	c #909190",
"R 	c #B6B6B6",
"S 	c #B8B8B8",
"T 	c #BABABA",
"U 	c #BCBCBC",
"V 	c #BEBEBE",
"W 	c #C1C1C1",
"X 	c #8B8D8A",
"Y 	c #878787",
"Z 	c #787976",
"` 	c #F7F7F7",
" .	c #7A7A7A",
"..	c #E5E5E5",
"+.	c #2C2C2C",
"@.	c #282828",
"#.	c #434343",
"$.	c #8F908E",
"%.	c #555653",
"&.	c #343534",
"*.	c #424242",
"=.	c #535353",
"-.	c #80817F",
";.	c #ADADAD",
">.	c #A2A2A2",
",.	c #F2F2F2",
"'.	c #242424",
").	c #202020",
"!.	c #E6E6E6",
"~.	c #555754",
"{.	c #858585",
"].	c #5C5E5B",
"^.	c #787A77",
"/.	c #B7B7B7",
"(.	c #9A9A9A",
"_.	c #1C1C1C",
":.	c #181818",
"<.	c #353535",
"[.	c #565855",
"}.	c #3B3B3B",
"|.	c #5F5F5F",
"1.	c #6A6B69",
"2.	c #CBCBCB",
"3.	c #A0A0A0",
"4.	c #141414",
"5.	c #101010",
"6.	c #2E2E2E",
"7.	c #E4E4E4",
"8.	c #8F918E",
"9.	c #575955",
"0.	c #3F3F3F",
"a.	c #525252",
"b.	c #5F615D",
"c.	c #CDCECC",
"d.	c #D3D3D3",
"e.	c #C9C9C9",
"f.	c #0C0C0C",
"g.	c #080808",
"h.	c #272727",
"i.	c #E3E3E3",
"j.	c #90918F",
"k.	c #61625F",
"l.	c #7B7B7B",
"m.	c #A4A4A4",
"n.	c #AAAAAA",
"o.	c #888A88",
"p.	c #51371B",
"q.	c #5D462F",
"r.	c #563F27",
"s.	c #8A735C",
"t.	c #957E67",
"u.	c #866F58",
"v.	c #553D27",
"w.	c #917A63",
"x.	c #8B745D",
"y.	c #432C15",
"z.	c #341D06",
"A.	c #321B04",
"B.	c #311A03",
"C.	c #2F1801",
"D.	c #2E1700",
"E.	c #3E2610",
"F.	c #947D67",
"G.	c #69523B",
"H.	c #59432B",
"I.	c #79624B",
"J.	c #937C65",
"K.	c #68523A",
"L.	c #492E12",
"M.	c #4D2600",
"N.	c #4E2802",
"O.	c #7B5734",
"P.	c #876442",
"Q.	c #866341",
"R.	c #866340",
"S.	c #86623F",
"T.	c #85623F",
"U.	c #85613E",
"V.	c #84603D",
"W.	c #84603C",
"X.	c #835F3B",
"Y.	c #835E3A",
"Z.	c #825D39",
"`.	c #825D38",
" +	c #815C37",
".+	c #815B36",
"++	c #805A35",
"@+	c #805933",
"#+	c #7F5832",
"$+	c #7E5731",
"%+	c #7E562F",
"&+	c #7D552E",
"*+	c #7C542D",
"=+	c #7C532C",
"-+	c #7B522A",
";+	c #7A5129",
">+	c #7A5027",
",+	c #794F26",
"'+	c #784E24",
")+	c #774D23",
"!+	c #774C21",
"~+	c #764A20",
"{+	c #75491E",
"]+	c #74481D",
"^+	c #74471B",
"/+	c #73461A",
"(+	c #724518",
"_+	c #714316",
":+	c #704215",
"<+	c #704113",
"[+	c #6F4012",
"}+	c #6E3F10",
"|+	c #6D3D0E",
"1+	c #68390B",
"2+	c #4F2801",
"3+	c #67411C",
"4+	c #BF9F80",
"5+	c #BF9E7F",
"6+	c #BE9D7E",
"7+	c #BE9C7C",
"8+	c #BD9B7B",
"9+	c #BC9A79",
"0+	c #BB9978",
"a+	c #BA9876",
"b+	c #BA9674",
"c+	c #B99572",
"d+	c #B89470",
"e+	c #B7926E",
"f+	c #B6906C",
"g+	c #B58F6A",
"h+	c #B38D68",
"i+	c #B28B65",
"j+	c #B18963",
"k+	c #B08861",
"l+	c #AF865E",
"m+	c #AD845B",
"n+	c #AC8259",
"o+	c #AB8056",
"p+	c #A97E54",
"q+	c #A87C51",
"r+	c #A77A4E",
"s+	c #A5784B",
"t+	c #A47549",
"u+	c #A27346",
"v+	c #A17143",
"w+	c #9F6F40",
"x+	c #9E6C3D",
"y+	c #9C6A3A",
"z+	c #9B6837",
"A+	c #996634",
"B+	c #986330",
"C+	c #96612D",
"D+	c #955F2A",
"E+	c #935C27",
"F+	c #925A24",
"G+	c #905720",
"H+	c #8E551D",
"I+	c #8D521A",
"J+	c #8B5017",
"K+	c #643507",
"L+	c #6A431F",
"M+	c #C3A488",
"N+	c #D9C5B2",
"O+	c #D9C6B3",
"P+	c #D9C5B3",
"Q+	c #D8C5B2",
"R+	c #D8C4B0",
"S+	c #D7C3B0",
"T+	c #D7C2AF",
"U+	c #D6C2AE",
"V+	c #D6C1AD",
"W+	c #D5C0AB",
"X+	c #D5BFAA",
"Y+	c #D4BEA9",
"Z+	c #D4BDA8",
"`+	c #D3BCA6",
" @	c #D2BBA5",
".@	c #D1BAA4",
"+@	c #D1B9A2",
"@@	c #D0B8A1",
"#@	c #CFB7A0",
"$@	c #CFB69E",
"%@	c #CEB59C",
"&@	c #CDB49B",
"*@	c #CCB29A",
"=@	c #CCB198",
"-@	c #CBB096",
";@	c #CAAF95",
">@	c #C9AE93",
",@	c #C8AD91",
"'@	c #C7AB90",
")@	c #C7AA8E",
"!@	c #C4A78A",
"~@	c #C3A486",
"{@	c #C0A081",
"]@	c #BE9D7D",
"^@	c #A77A50",
"/@	c #905821",
"(@	c #8F561E",
"_@	c #8D531B",
":@	c #8C5118",
"<@	c #8A4E15",
"[@	c #653607",
"}@	c #69431E",
"|@	c #BC9978",
"1@	c #BB9977",
"2@	c #CCB39B",
"3@	c #DDCCBB",
"4@	c #CEB69E",
"5@	c #C9AE92",
"6@	c #C7AB8F",
"7@	c #C5A98C",
"8@	c #C4A689",
"9@	c #C2A485",
"0@	c #C0A182",
"a@	c #BF9E7E",
"b@	c #BB9876",
"c@	c #B99573",
"d@	c #B7926F",
"e@	c #B58F6B",
"f@	c #B38C67",
"g@	c #B08862",
"h@	c #AE865D",
"i@	c #AC8159",
"j@	c #AA7E55",
"k@	c #A5774A",
"l@	c #A27345",
"m@	c #A07041",
"n@	c #9D6D3D",
"o@	c #986432",
"p@	c #97622F",
"q@	c #95602C",
"r@	c #945D28",
"s@	c #925B25",
"t@	c #915922",
"u@	c #8F561F",
"v@	c #8E541C",
"w@	c #8C5219",
"x@	c #8B4F16",
"y@	c #894D12",
"z@	c #653506",
"A@	c #69421D",
"B@	c #B99673",
"C@	c #B6916D",
"D@	c #B5906B",
"E@	c #B48E69",
"F@	c #B38C66",
"G@	c #B28A64",
"H@	c #B18962",
"I@	c #B08760",
"J@	c #AE855E",
"K@	c #AD845C",
"L@	c #AB8157",
"M@	c #AA7F55",
"N@	c #A97D52",
"O@	c #A87B50",
"P@	c #A6794E",
"Q@	c #A5774B",
"R@	c #A47548",
"S@	c #A06F40",
"T@	c #9E6D3D",
"U@	c #9D6B3B",
"V@	c #9C6938",
"W@	c #9A6735",
"X@	c #996432",
"Y@	c #96602C",
"Z@	c #945E29",
"`@	c #935C26",
" #	c #915923",
".#	c #8C5119",
"+#	c #8A5016",
"@#	c #894E13",
"##	c #884B10",
"$#	c #653505",
"%#	c #68411C",
"&#	c #B7936F",
"*#	c #C5A78B",
"=#	c #B5906C",
"-#	c #B38D67",
";#	c #B28B66",
">#	c #B08860",
",#	c #AE855C",
"'#	c #AD835A",
")#	c #AC8158",
"!#	c #AA7E54",
"~#	c #A87C52",
"{#	c #A77B4F",
"]#	c #A6794D",
"^#	c #996532",
"/#	c #97632F",
"(#	c #8D531A",
"_#	c #884D16",
":#	c #804710",
"<#	c #884C11",
"[#	c #87490E",
"}#	c #643404",
"|#	c #68401B",
"1#	c #B6916C",
"2#	c #C8AB8F",
"3#	c #B48D68",
"4#	c #B18A64",
"5#	c #AF865F",
"6#	c #AE855D",
"7#	c #AD835B",
"8#	c #AB8057",
"9#	c #A97D53",
"0#	c #A87B51",
"a#	c #A6784C",
"b#	c #A5764A",
"c#	c #A37547",
"d#	c #A17142",
"e#	c #9D6B3A",
"f#	c #96602D",
"g#	c #955E2A",
"h#	c #8F551E",
"i#	c #864C13",
"j#	c #7D450F",
"k#	c #874A0F",
"l#	c #85480B",
"m#	c #643303",
"n#	c #6C471D",
"o#	c #866135",
"p#	c #B49064",
"q#	c #B08C61",
"r#	c #B89973",
"s#	c #AF8D64",
"t#	c #A68056",
"u#	c #A27C52",
"v#	c #9F784E",
"w#	c #A77F56",
"x#	c #AB8158",
"y#	c #AA7F56",
"z#	c #A77B50",
"A#	c #A47649",
"B#	c #A37447",
"C#	c #A27244",
"D#	c #A17042",
"E#	c #9F6F3F",
"F#	c #9B6938",
"G#	c #8D541B",
"H#	c #8A4F15",
"I#	c #844910",
"J#	c #7C440C",
"K#	c #86480C",
"L#	c #844609",
"M#	c #633202",
"N#	c #BB9D6F",
"O#	c #BEA076",
"P#	c #B99A6E",
"Q#	c #B19064",
"R#	c #A9875A",
"S#	c #A17E50",
"T#	c #997446",
"U#	c #916B3C",
"V#	c #896132",
"W#	c #7B5629",
"X#	c #724E22",
"Y#	c #7B542B",
"Z#	c #A17243",
"`#	c #9F6E3F",
" $	c #9E6C3C",
".$	c #9A6635",
"+$	c #894D13",
"@$	c #82470E",
"#$	c #7B420B",
"$$	c #85460A",
"%$	c #834407",
"&$	c #BFA278",
"*$	c #CDB39B",
"=$	c #C5A78A",
"-$	c #BC9A7A",
";$	c #AC8258",
">$	c #9B6937",
",$	c #8A4F16",
"'$	c #78430C",
")$	c #603A11",
"!$	c #91673E",
"~$	c #A77A4F",
"{$	c #A27245",
"]$	c #9F6D3E",
"^$	c #9D6C3B",
"/$	c #9C6A39",
"($	c #9A6634",
"_$	c #945E2A",
":$	c #915822",
"<$	c #8B5016",
"[$	c #7F440B",
"}$	c #7A4108",
"|$	c #834507",
"1$	c #824204",
"2$	c #623100",
"3$	c #B4956A",
"4$	c #BC9B7A",
"5$	c #A97B44",
"6$	c #C89F28",
"7$	c #CA9E13",
"8$	c #975F14",
"9$	c #834306",
"0$	c #803F00",
"a$	c #603205",
"b$	c #784F26",
"c$	c #9B6736",
"d$	c #996633",
"e$	c #986431",
"f$	c #884B11",
"g$	c #7E430A",
"h$	c #793F06",
"i$	c #824205",
"j$	c #814002",
"k$	c #AA895E",
"l$	c #BD9B7A",
"m$	c #E8CD5E",
"n$	c #FFFEFB",
"o$	c #FFEB67",
"p$	c #ECC501",
"q$	c #804000",
"r$	c #653200",
"s$	c #774D24",
"t$	c #A37548",
"u$	c #A37346",
"v$	c #9D6C3C",
"w$	c #996533",
"x$	c #97612E",
"y$	c #95602B",
"z$	c #8A4E14",
"A$	c #85470B",
"B$	c #7C4007",
"C$	c #783D04",
"D$	c #814102",
"E$	c #A07D52",
"F$	c #B48E6A",
"G$	c #9E6B37",
"H$	c #FDE347",
"I$	c #FFFDED",
"J$	c #FFE95A",
"K$	c #FFDD00",
"L$	c #965A00",
"M$	c #764C23",
"N$	c #9F6E3E",
"O$	c #9B6836",
"P$	c #955F2B",
"Q$	c #935B26",
"R$	c #915A23",
"S$	c #844508",
"T$	c #793E04",
"U$	c #773C02",
"V$	c #967246",
"W$	c #935D28",
"X$	c #D8AE08",
"Y$	c #ECC500",
"Z$	c #754A21",
"`$	c #986331",
" %	c #783C02",
".%	c #763A00",
"+%	c #8C663A",
"@%	c #8A4C06",
"#%	c #B78300",
"$%	c #C19000",
"%%	c #8D5000",
"&%	c #5A2D00",
"*%	c #74491F",
"=%	c #A07042",
"-%	c #9A6736",
";%	c #814103",
">%	c #773A00",
",%	c #825B2E",
"'%	c #9C6939",
")%	c #8B5117",
"!%	c #7F3E00",
"~%	c #6D3500",
"{%	c #73481D",
"]%	c #97622E",
"^%	c #86490D",
"/%	c #824305",
"(%	c #763900",
"_%	c #6D461C",
":%	c #704518",
"<%	c #683C0E",
"[%	c #603204",
"}%	c #5D2E00",
"|%	c #5C2D00",
"1%	c #502700",
"2%	c #825428",
"3%	c #945D29",
"4%	c #925A25",
"5%	c #85470A",
"6%	c #753900",
"7%	c #5C360E",
"8%	c #552E07",
"9%	c #5A3109",
"0%	c #743800",
"a%	c #582F08",
"b%	c #75481D",
"c%	c #74481C",
"d%	c #75481C",
"e%	c #855628",
"f%	c #996635",
"g%	c #935D27",
"h%	c #874A0E",
"i%	c #733800",
"j%	c #61370F",
"k%	c #96612E",
"l%	c #894C12",
"m%	c #844509",
"n%	c #834406",
"o%	c #733900",
"p%	c #61360E",
"q%	c #8E541D",
"r%	c #803F01",
"s%	c #723800",
"t%	c #60350D",
"u%	c #874B0F",
"v%	c #713800",
"w%	c #60350C",
"x%	c #8F571F",
"y%	c #804001",
"z%	c #7F3F00",
"A%	c #713700",
"B%	c #5F340B",
"C%	c #5F330A",
"D%	c #905721",
"E%	c #86480D",
"F%	c #7D3E00",
"G%	c #5E3209",
"H%	c #8E551E",
"I%	c #8C521C",
"J%	c #8B521B",
"K%	c #8A511A",
"L%	c #884F18",
"M%	c #884E16",
"N%	c #874D15",
"O%	c #864B14",
"P%	c #844A12",
"Q%	c #834911",
"R%	c #82470F",
"S%	c #80460E",
"T%	c #80450C",
"U%	c #7D4209",
"V%	c #7B4108",
"W%	c #7A3F06",
"X%	c #783D03",
"Y%	c #773A02",
"Z%	c #743900",
"`%	c #5D3207",
" &	c #7F4914",
".&	c #7F4813",
"+&	c #7F4812",
"@&	c #7F4712",
"#&	c #7E4610",
"$&	c #7D450E",
"%&	c #7C440D",
"&&	c #7B430C",
"*&	c #7B410A",
"=&	c #794007",
"-&	c #783E06",
";&	c #773D04",
">&	c #773D03",
",&	c #773B02",
"'&	c #623000",
")&	c #502801",
"!&	c #794412",
"~&	c #7F4814",
"{&	c #7E4812",
"]&	c #7E4712",
"^&	c #7E4611",
"/&	c #7D4610",
"(&	c #7D4510",
"_&	c #7C440F",
":&	c #7C440E",
"<&	c #7C430D",
"[&	c #7A400A",
"}&	c #794009",
"|&	c #793F08",
"1&	c #793E06",
"2&	c #783D05",
"3&	c #773C03",
"4&	c #763A02",
"5&	c #542900",
"                                                                                                ",
"                                        . + @                                                   ",
"                                      # $ % & *                                                 ",
"                                    # $ = - ; > *                                               ",
"                                  # , ' - - - ; > *                                             ",
"                                # ) ! ~ { - - - ; > *                                           ",
"                              ] ^ ! / ( _ : - - - ; < [                                         ",
"            * } | | | | | 1 2 3 ! / ( 4 5 6 7 - - - ; < 8 9 | | | | | | | | | | 0 *             ",
"          a b - - - - - c d e ' ~ ( 4 5 f g h i - - - ; j k l - - - - - - - - - - m n           ",
"          o p - - - - c d e = - { _ 5 q g r s t u - - - ; v k w - - - - - - - - - x y           ",
"          o p - - - c d z = - - - : A g r s B C 5 ' - - - ; v k D - - - - - - - - x y           ",
"          o E F G H I J = - - - - - 7 h s B C K L M N - - - ; O P Q R S T U V W F X y           ",
"          o Y h t @ Z = - - `  ...- - i t C K L +.@.#.N - - - ; $.%.&.*.g f =.( h -.y           ",
"          o Y h 8 Z = - - - - ;.>.,.- - u 5 L +.@.'.).B !.- - - ; $.~.C g f =.( h -.y           ",
"          o {.].^.` - - - - - - /.(.` - - ' M @.'.)._.:.<...- - - ; $.[.}.q =.( |.-.y           ",
"          o 1.Z ` - - - - - - - - 2.3.; - - N #.)._.:.4.5.6.7.- - - ; 8.9.0.a.( |.-.y           ",
"          o b.c.- - - - - - - - - - W d.e.- - N B :.4.5.f.g.h.i.- - - ; j.k.l.m.n.o.y           ",
"          p.q.r.s.t.t.t.t.t.t.t.t.t.t.u.v.w.t.t.x.y.z.A.B.C.D.E.s.t.t.t.F.G.H.I.J.K.L.M.M.      ",
"    N.O.P.Q.R.S.T.U.V.W.X.Y.Z.`. +.+++@+#+$+%+&+*+=+-+;+>+,+'+)+!+~+{+]+^+/+(+_+:+<+[+}+|+1+2+  ",
"    3+4+5+6+7+8+9+0+a+b+c+d+e+f+g+h+i+j+k+l+m+n+o+p+q+r+s+t+u+v+w+x+y+z+A+B+C+D+E+F+G+H+I+J+K+M.",
"    L+7+8+M+N+O+P+Q+R+S+T+U+V+W+X+Y+Z+`+ @.@+@@@#@$@%@&@*@=@-@;@>@,@'@)@!@~@{@]@^@/@(@_@:@<@[@M.",
"    }@|@1@2@3@R+4@&@=@;@5@6@7@8@9@0@a@8+b@c@d@e@f@g@h@i@j@^@k@l@m@n@z+o@p@q@r@s@t@u@v@w@x@y@z@M.",
"    A@b+B@-@S+B@e+C@D@E@h+F@G@H@I@J@K@n+L@M@N@O@P@Q@R@u+v+S@T@U@V@W@X@p@Y@Z@`@ #G+H+.#+#@###$#M.",
"    %#d+&#>@*#=#g+E@-#;#G@H@>#l+,#'#)#o+!#~#{#]#k@R@l@v+S@T@U@V@W@^#/#Y@Z@E+F+G+H+(#_#:#<#[#}#M.",
"    |#1#D@2#{@3#f@i+4#H@>#5#6#7#n+8#M@9#0#r+a#b#c#l@d#S@T@e#V@W@^#/#f#g#E+F+/@h#_@:@i#j#k#l#m#M.",
"  n#o#p#q#r#s#t#u#v#w#l+6#m+n+x#y#p+~#z#]#Q@A#B#C#D#E#x+e#F#W@^#/#f#g#E+F+/@(@G#:@H#I#J#K#L#M#M.",
"N#O#P#Q#R#S#T#U#V#W#X#Y#x#x#y#!#N@O@r+a#k@R@u+Z#m@`# $y+z+.$X@/#f#g#E+F+/@u@v@w@x@+$@$#$$$%$M#M.",
"&$*$=$-$E@;$R@>$E+,$'$)$!$!#N@0#~$]#Q@A#B#{$d#S@]$^$/$z+($o@p@Y@_$E+F+:$u@v@w@<$+$##[$}$|$1$2$M.",
"3$*#4$E@n+5$6$7$8$9$0$a$b$O@~$]#Q@A#c#l@Z#m@`#T@U@V@c$d$e$p@Y@Z@E+F+/@u@v@w@<$@#f$[#g$h$i$j$2$M.",
"k$l$E@n+R@m$n$o$p$q$0$r$s$]#Q@A#t$u$C#D#S@]$v$y+>$W@w$B+x$y$Z@`@F+/@u@v@w@<$z$f$[#A$B$C$D$0$2$M.",
"E$F$n+t+G$H$I$J$K$L$0$r$M$A#c#u$C#d#S@N$x+e#V@O$($X@/#C+P$r@Q$R$/@(@v@w@<$@#f$[#A$S$T$U$0$0$2$M.",
"V$n+A#V@W$X$K$K$Y$q$0$r$Z$l@C#d#S@`#T@U@/$z+W@w$`$p@Y@g#W$s@ #G+h#_@.#x@@#f$[#A$S$9$ %.%0$0$2$M.",
"+%A#V@r@J+@%#%$%%%0$0$&%*%=%S@`#T@U@/$>$-%A+o@/#C+P$Z@E+F+t@G+H+_@:@x@+$##[#A$S$9$;%>%.%0$0$2$M.",
",%'%r@)%%$0$0$0$0$!%~%M.{%]$ $U@/$F#c$($^#B+]%Y@D+r@Q$R$/@u@v@(#:@H#+$##^%A$S$/%;%0$(%.%0$0$2$M.",
"_%:%<%[%}%}%}%}%|%1%M.M.2%e#'%z+-%($^#B+p@f#P$3%E+4%t@G+h#v@w@J+z$y@##^%5%S$/%;%0$0$6%.%0$0$2$M.",
"7%8%M.M.M.M.M.M.M.M.M.9%z+O$W@A+X@B+p@C+P$Z@E+s@ #/@u@H+_@:@<$z$<#k#K#$$|$/%D$0$0$0$0%.%0$0$2$M.",
"  M.a%{+{+{+b%b%c%d%e%f%($w$e$B+]%f#P$Z@g%Q$F+:$G+h#v@w@)%H#+$##h%K#L#%$1$j$0$0$0$0$i%.%0$0$2$M.",
"    j%/$'%V@z+O$W@($w$o@B+p@k%Y@P$Z@g%Q$F+t@G+(@v@(#:@<$z$l%##^%A$m%n%1$j$0$0$0$0$0$o%.%0$0$2$M.",
"    p%W@.$($w$^#e$B+p@x$f#P$g#r@E+s@F+t@G+u@q%_@w@J+H#+$f$h%K#5%S$/%;%r%0$0$0$0$0$0$s%.%0$0$2$M.",
"    t%e$`$B+p@]%C+Y@P$g#3%g%`@4% #:$G+(@q%_@w@)%H#@#<#u%^%A$L#%$1$D$0$0$0$0$0$0$0$0$v%.%0$0$2$M.",
"    w%C+f#Y@P$D+Z@r@E+`@s@F+t@/@x%h#v@_@w@)%x@z$l%##[#K#$$S$9$1$y%0$0$0$0$0$0$0$0$z%A%.%0$0$2$M.",
"    B%Z@Z@r@E+`@s@F+R$t@/@G+(@H+v@(#.#J+H#z$l%##h%K#5%S$n%1$;%0$0$0$0$0$0$0$0$0$0$z%A%.%0$0$2$M.",
"    C%s@s@F+R$t@:$D%G+(@H+v@_@w@:@<$H#@#l%##h%E%A$L#%$/%;%y%0$0$0$0$0$0$0$0$0$z%z%F%A%.%0$0$2$M.",
"    G%/@/@G+x%u@H%I%J%K%L%M%N%O%P%Q%R%S%T%g$U%V%W%T$X%Y%.%6%Z%Z%Z%i%o%s%A%v%A%A%A%A%A%.%0$0$2$M.",
"    `%h#H+v@G#_@L% &.&+&@&#&j#$&%&&&#$*&}$=&-&;&>&,&.%.%.%.%.%.%.%.%.%.%.%.%.%.%.%.%(%F%0$0$'&M.",
"    )&!&~&.&{&]&^&/&(&_&:&<&&&#$[&}&|&1&2&;&3&4&6%6%6%6%6%6%6%6%6%6%6%6%6%6%6%6%6%6%6%6%6%s%5&M.",
"    M.M.M.M.M.M.M.M.M.M.M.M.M.M.M.M.M.M.M.M.M.M.M.M.M.M.M.M.M.M.M.M.M.M.M.M.M.M.M.M.M.M.M.M.M.  ",
"        M.M.M.M.M.M.M.M.M.M.M.M.M.M.M.M.M.M.M.M.M.M.M.M.M.M.M.M.M.M.M.M.M.M.M.M.M.M.M.M.M.M.    "};
