/* XPM */
static char * slotsImgList_xpm[] = {
"208 16 256 2",
"  	c #000000",
". 	c #800000",
"+ 	c #008000",
"@ 	c #808000",
"# 	c #000080",
"$ 	c #800080",
"% 	c #008080",
"& 	c #C0C0C0",
"* 	c #C0DCC0",
"= 	c #A6CAF0",
"- 	c #040404",
"; 	c #080808",
"> 	c #0C0C0C",
", 	c #111111",
"' 	c #161616",
") 	c #1C1C1C",
"! 	c #222222",
"~ 	c #292929",
"{ 	c #555555",
"] 	c #4D4D4D",
"^ 	c #424242",
"/ 	c #393939",
"( 	c #FF7C80",
"_ 	c #FF5050",
": 	c #D60093",
"< 	c #CCECFF",
"[ 	c #EFD6C6",
"} 	c #E7E7D6",
"| 	c #ADA990",
"1 	c #330000",
"2 	c #660000",
"3 	c #990000",
"4 	c #CC0000",
"5 	c #003300",
"6 	c #333300",
"7 	c #663300",
"8 	c #993300",
"9 	c #CC3300",
"0 	c #FF3300",
"a 	c #006600",
"b 	c #336600",
"c 	c #666600",
"d 	c #996600",
"e 	c #CC6600",
"f 	c #FF6600",
"g 	c #009900",
"h 	c #339900",
"i 	c #669900",
"j 	c #999900",
"k 	c #CC9900",
"l 	c #FF9900",
"m 	c #00CC00",
"n 	c #33CC00",
"o 	c #66CC00",
"p 	c #99CC00",
"q 	c #CCCC00",
"r 	c #FFCC00",
"s 	c #66FF00",
"t 	c #99FF00",
"u 	c #CCFF00",
"v 	c #000033",
"w 	c #330033",
"x 	c #660033",
"y 	c #990033",
"z 	c #CC0033",
"A 	c #FF0033",
"B 	c #003333",
"C 	c #333333",
"D 	c #663333",
"E 	c #993333",
"F 	c #CC3333",
"G 	c #FF3333",
"H 	c #006633",
"I 	c #336633",
"J 	c #666633",
"K 	c #996633",
"L 	c #CC6633",
"M 	c #FF6633",
"N 	c #009933",
"O 	c #339933",
"P 	c #669933",
"Q 	c #999933",
"R 	c #CC9933",
"S 	c #FF9933",
"T 	c #00CC33",
"U 	c #33CC33",
"V 	c #66CC33",
"W 	c #99CC33",
"X 	c #CCCC33",
"Y 	c #FFCC33",
"Z 	c #33FF33",
"` 	c #66FF33",
" .	c #99FF33",
"..	c #CCFF33",
"+.	c #FFFF33",
"@.	c #000066",
"#.	c #330066",
"$.	c #660066",
"%.	c #990066",
"&.	c #CC0066",
"*.	c #FF0066",
"=.	c #003366",
"-.	c #333366",
";.	c #663366",
">.	c #993366",
",.	c #CC3366",
"'.	c #FF3366",
").	c #006666",
"!.	c #336666",
"~.	c #666666",
"{.	c #996666",
"].	c #CC6666",
"^.	c #009966",
"/.	c #339966",
"(.	c #669966",
"_.	c #999966",
":.	c #CC9966",
"<.	c #FF9966",
"[.	c #00CC66",
"}.	c #33CC66",
"|.	c #99CC66",
"1.	c #CCCC66",
"2.	c #FFCC66",
"3.	c #00FF66",
"4.	c #33FF66",
"5.	c #99FF66",
"6.	c #CCFF66",
"7.	c #FF00CC",
"8.	c #CC00FF",
"9.	c #009999",
"0.	c #993399",
"a.	c #990099",
"b.	c #CC0099",
"c.	c #000099",
"d.	c #333399",
"e.	c #660099",
"f.	c #CC3399",
"g.	c #FF0099",
"h.	c #006699",
"i.	c #336699",
"j.	c #663399",
"k.	c #996699",
"l.	c #CC6699",
"m.	c #FF3399",
"n.	c #339999",
"o.	c #669999",
"p.	c #999999",
"q.	c #CC9999",
"r.	c #FF9999",
"s.	c #00CC99",
"t.	c #33CC99",
"u.	c #66CC66",
"v.	c #99CC99",
"w.	c #CCCC99",
"x.	c #FFCC99",
"y.	c #00FF99",
"z.	c #33FF99",
"A.	c #66CC99",
"B.	c #99FF99",
"C.	c #CCFF99",
"D.	c #FFFF99",
"E.	c #0000CC",
"F.	c #330099",
"G.	c #6600CC",
"H.	c #9900CC",
"I.	c #CC00CC",
"J.	c #003399",
"K.	c #3333CC",
"L.	c #6633CC",
"M.	c #9933CC",
"N.	c #CC33CC",
"O.	c #FF33CC",
"P.	c #0066CC",
"Q.	c #3366CC",
"R.	c #666699",
"S.	c #9966CC",
"T.	c #CC66CC",
"U.	c #FF6699",
"V.	c #0099CC",
"W.	c #3399CC",
"X.	c #6699CC",
"Y.	c #9999CC",
"Z.	c #CC99CC",
"`.	c #FF99CC",
" +	c #00CCCC",
".+	c #33CCCC",
"++	c #66CCCC",
"@+	c #99CCCC",
"#+	c #CCCCCC",
"$+	c #FFCCCC",
"%+	c #00FFCC",
"&+	c #33FFCC",
"*+	c #66FF99",
"=+	c #99FFCC",
"-+	c #CCFFCC",
";+	c #FFFFCC",
">+	c #3300CC",
",+	c #6600FF",
"'+	c #9900FF",
")+	c #0033CC",
"!+	c #3333FF",
"~+	c #6633FF",
"{+	c #9933FF",
"]+	c #CC33FF",
"^+	c #FF33FF",
"/+	c #0066FF",
"(+	c #3366FF",
"_+	c #6666CC",
":+	c #9966FF",
"<+	c #CC66FF",
"[+	c #FF66CC",
"}+	c #0099FF",
"|+	c #3399FF",
"1+	c #6699FF",
"2+	c #9999FF",
"3+	c #CC99FF",
"4+	c #FF99FF",
"5+	c #00CCFF",
"6+	c #33CCFF",
"7+	c #66CCFF",
"8+	c #99CCFF",
"9+	c #CCCCFF",
"0+	c #FFCCFF",
"a+	c #33FFFF",
"b+	c #66FFCC",
"c+	c #99FFFF",
"d+	c #CCFFFF",
"e+	c #FF6666",
"f+	c #66FF66",
"g+	c #FFFF66",
"h+	c #6666FF",
"i+	c #FF66FF",
"j+	c #66FFFF",
"k+	c #A50021",
"l+	c #5F5F5F",
"m+	c #777777",
"n+	c #868686",
"o+	c #969696",
"p+	c #CBCBCB",
"q+	c #B2B2B2",
"r+	c #D7D7D7",
"s+	c #DDDDDD",
"t+	c #E3E3E3",
"u+	c #EAEAEA",
"v+	c #F1F1F1",
"w+	c #F8F8F8",
"x+	c #FFFBF0",
"y+	c #A0A0A4",
"z+	c #808080",
"A+	c #FF0000",
"B+	c #00FF00",
"C+	c #FFFF00",
"D+	c #0000FF",
"E+	c #FF00FF",
"F+	c #00FFFF",
"G+	c #FFFFFF",
"G+G+G+G+G+G+G+Y.Y.Y.Y.Y.Y.G+G+G+G+G+G+G+G+G+G+G+G+G+G+G+G+G+G+G+G+G+G+G+G+G+G+G+G+G+G+G+G+G+G+G+G+G+G+G+G+G+G+G+G+G+G+G+G+G+G+G+G+G+G+G+G+G+G+G+G+G+G+G+G+G+G+G+G+G+G+G+G+G+G+G+G+A+A+A+A+A+G+G+G+G+G+G+G+h.h.h.G+G+G+G+G+G+G+G+G+G+G+G+G+G+G+G+G+G+G+G+G+G+G+G+G+G+G+G+G+G+G+G+G+G+G+G+G+G+G+G+G+G+G+G+G+G+G+G+G+G+G+G+G+G+G+G+G+G+G+G+G+G+G+G+G+G+G+G+G+G+G+G+G+G+G+G+^ ~.^ , G+G+G+G+G+G+G+G+G+G+G+G+7+1+X.Q.Q.X.X.1+7+G+G+G+",
"G+G+G+Y.#+#+#+q+Y.@+@+@+-.i.G+G+- n+G+G+G+G+G+G+G+n+G+G+G+G+G+G+- n+G+G+G+G+G+G+G+n+n+n+n+n+G+G+- n+G+G+G+G+G+G+G+n+G+G+G+G+G+G+- n+G+G+G+G+G+G+G+n+n+n+n+n+G+G+- n+G+G+G+G+G+G+A+A+A+A+A+A+A+G+G+G+G+G+G+h.++W.h.h.G+G+G+G+G+G+G+G+G+G+G+G+G+G+G+G+G+G+G+G+G+G+G+G+G+G+n+n+n+n+G+G+G+G+G+G+G+G+G+G+G+G+A+A+A+A+A+G+G+G+G+G+G+G+G+R.o.o.o.o.o.R.G+G+G+G+G+G+G+G+G+G+! q+s+p.{ { , G+G+! ~.~., G+G+G+7+X.i.=.=.=.=.=.=.i.X.1+G+G+",
"G+G+G+#+y+@+= < d+d+c+8+d.d.G+G+G+- n+G+G+G+G+n+n+#+n+G+G+G+G+G+G+- n+G+G+G+G+n+n+G+G+G+G+G+- G+G+- n+G+G+G+G+n+n+#+n+G+G+G+G+G+G+- n+G+G+G+G+n+n+G+G+G+G+G+- G+G+- n+G+G+G+G+A+A+A+A+A+A+A+A+A+h.h.h.h.h.h.@+@+@+X.h.h.G+G+G+G+G+G+G+G+G+G+G+G+G+G+G+G+G+G+G+G+G+G+n+n+G+G+G+G+G+- G+G+G+G+G+G+G+G+G+A+A+A+A+A+A+A+G+G+G+G+G+G+R.o.9+v+v+v+9+R.R.R.R.R.R.R.G+G+G+! #+#+q+^ G+    G+  q+#+^     G+1+W.=.=.i.Q.X.X.i.-.=.=.Q.1+G+",
"G+G+G+Y.= 8+c+c+< c+c+8+i.d.G+G+G+G+- n+G+n+n+#+#+& & n+G+G+G+G+G+G+- n+G+n+n+n+G+G+n+D+D+& G+- G+G+- n+G+n+n+#+#+& & n+G+G+G+G+G+G+- n+G+n+n+n+G+G+n+D+D+& G+- G+G+- n+G+n+n+A+A+G+G+G+G+G+A+A+h.@+@+@+@+@+@+@+@+@+@+++h.h.G+G+G+G+G+G+G+G+G+G+G+G+G+G+G+G+G+G+G+G+n+G+G+n+D+D+& G+G+G+G+G+G+G+G+G+A+A+A+A+A+A+A+A+A+G+G+G+G+G+R.9+9+9+9+9+9+s+s+s+s+s+s+R.G+G+~.p.p.q+q+n+G+G+G+G+! #+q+! m+, G+X.=.=.i.X.-.-.-.-.Q.-.=.=.W.G+",
"G+G+G+Y.= 7+8+8+8+8+8+7+_+d.G+G+G+G+G+n+n+s+#+#+& n+n+q+n+G+G+G+G+G+G+n+n+s+#+n+G+& D+& D+D+G+- G+G+G+n+n+s+#+#+& n+n+q+n+G+G+G+G+G+G+n+n+s+#+n+G+& D+& D+D+G+- G+G+G+n+n+s+#+A+A+G+G+G+G+G+A+A+h.@+@+@+@+@+@+@+@+@+@+@+@+@+h.G+u+u+u+t+s+#+@+Y.X.R.R.R.R.R.R.o+u+u+n+G+& D+& D+D+G+R.R.R.R.R.o+u+u+A+A+G+G+G+G+G+A+A+R.R.R.R.o+R.@+@+@+@+@+@+@+@+@+@+@+@+R.G+G+n+p., ^ n+F 1 G+G+G+{ q+n+& {   i.i.=.=.X.1+8+G+G+8+X.Q.=.=.i.=.",
"G+G+G+Y.= 7+7+8+8+8+7+7+_+-.G+G+G+n+n+s+s+#+#+n+n+q+q+y+y+n+G+G+G+n+n+s+s+#+#+n+G+G+& & D+& G+- G+n+n+s+s+#+#+n+n+q+q+y+y+n+G+G+G+n+n+s+s+#+#+n+G+G+& & D+& G+- G+n+n+s+s+#+#+A+A+A+A+A+A+A+A+A+h.= = = = = = = = = = = ++.+h.G+u+v+w+u+s+= = Y.Y.X.X.R.R.R.R.R.u+v+n+G+G+& & D+& G+X.R.R.R.R.R.u+v+A+A+G+G+G+G+G+A+A+R.R.R.R.R.@+G+G+G+G+G+G+G+G+G+G+G+G+@+G+G+, , G+G+- E F 1 G+G+n+m+n+q+  G+=.d.B d.X.1+8+8+8+1+X.Q.=.B i.=.",
"G+G+G+G+Y.7+7+7+7+7+7+7+X.-.G+G+n+G+s+s+& n+n+q+& q+q+q+y+y+n+G+n+G+s+s+& n+n+n+G+G+G+D+& G+G+- n+G+s+s+& n+n+q+& q+q+q+y+y+n+G+n+G+s+s+& n+n+n+G+G+G+D+& G+G+- n+G+s+s+& n+n+A+A+A+A+A+A+A+A+A+h.++++++++++< < < < ++V.V.V.h.G+u+u+v+u+s+= Y.Y.R.R.i.i.d.d.d.R.u+u+n+G+G+G+D+& G+G+i.i.d.d.d.R.u+u+A+A+A+A+A+A+A+A+A+i.d.d.d.R.Y.v+v+#+q+q+q+& v+v+v+v+v+Y.G+G+G+G+G+G+G+1 F F - ^ & n+^ !   G+=.i.B i.W.1+1+1+1+1+X.Q.d.B i.=.",
"G+G+G+G+Y.1+6+7+7+7+6+6+X.#.G+G+n+& G+n+n+& & & q+q+q+y+y+n+n+G+n+& G+n+n+& & & G+G+G+D+G+G+G+- n+& G+n+n+& & & q+q+q+y+y+n+n+G+n+& G+n+n+& & n+G+G+G+D+G+G+G+- n+& G+n+n+& & & A+A+A+A+A+A+A+G+h.V.V.V.V..+v+< X.V.V.V.V.V.h.G+t+t+t+t+r+= Y.X.R.R.i.i.d.d.d.R.t+t+t+G+G+G+D+G+G+G+i.i.d.d.d.R.t+t+A+A+A+A+A+A+A+A+A+i.d.d.d.R.Y.v+#+q+n+n+s+s+v+v+v+v+v+Y.G+G+G+G+G+G+G+G+1 D ~.& p., G+G+G+G+=.i.B =.Q.X.1+1+X.X.Q.Q.=.B i.=.",
"G+G+G+G+Y.1+6+6+6+7+Y.R.-.#.G+G+- n+& G+s+s+& q+& q+q+n+n+- - G+- n+& G+s+s+& q+n+G+G+G+G+G+- G+- n+& G+s+s+& q+& q+q+n+n+- - G+- n+& G+s+s+& q+n+G+G+G+G+G+- G+- n+& G+s+s+& q+& A+A+A+A+A+- G+h.V.V.V.V.W.n.h.h.9.V.V.h.h.G+G+r+r+r+r+= Y.Y.X.R.R.i._.1.1.l+R.r+r+r+r+G+G+G+G+G+- i._.1.1.l+R.r+r+r+A+A+A+A+A+A+A+i._.1.1.l+R.X.9+q+p.{ m+].#+9+9+9+9+9+X.G+G+G+G+G+G+G+G+  ^ & q+, G+G+G+G+G+B i.-.B i.Q.W.X.W.Q.Q.i.B i.J.v ",
"G+G+G+G+G+X.6+7+Y._+d.-.-.G+G+G+G+- n+& G+& & & q+y+n+- - q+- G+G+- n+& G+& & & q+y+- - - - - G+G+- n+& G+& & & q+y+n+- - & - G+G+- n+& G+& & & q+- - - - - - G+G+- n+& G+& & & q+y+n+- - & - G+h.h.h.h.h.h.h.h.h.h.h.h.G+G+G+G+p+= p+= & Y.X.R.R.i.i.R r Y ~.R.p+= p+= & Y.X.R.R.i.i.R r Y ~.R.p+= p+= A+A+A+A+A+i.i.R r Y ~.R.o.#+p.~.n+D 3 F q.@+9+9+9+o.G+G+G+G+G+G+G+G+^ & & ^ C   G+G+G+G+G+=.Q.-.=.-.i.i.i.i.-.-.i.i.=.G+",
"G+G+G+G+G+Y.& Y.Y.d.d.R.G+G+G+G+G+G+- n+& G+& q+n+- - q+q+n+- G+G+G+- n+& G+& q+n+- - q+q+n+- G+G+G+- n+& G+& q+n+- - & r+G+% G+G+G+- n+& G+& q+n+- - & r+G+% G+G+G+- n+& G+& q+n+- - & r+G+% G+G+G+G+G+G+h.h.h.h.h.G+G+G+G+G+G+& Y.Y.Y.Y.Y._+R.i.i.d.l+~.~.d.R.& Y.Y.Y.Y.Y._+R.i.i.d.l+~.~.d.R.& Y.Y.Y.Y.Y._+R.i.i.d.l+~.~.d.R.o.@+n+Y.@+@+~.. . ^ p.9+9+o.G+G+G+G+G+G+G+^ & #+C , ^ C   G+G+G+G+v J.h.i.i.d.-.d.i.i.i.h.J., G+",
"G+G+G+G+G+u+v+t+& R.R.Y.R.G+G+G+G+G+G+- n+& G+- - q+q+n+n+- - G+G+G+G+- n+& G+- - q+q+n+n+- - G+G+G+G+- n+& G+- - C+C+@ r+G+G+% G+G+G+- n+& G+- - C+C+@ r+G+G+% G+G+G+- n+& G+- - C+C+@ r+G+G+% G+G+G+G+G+h.h.h.G+G+G+G+G+G+G+G+Y.Y.Y.Y.Y.R.R.R.i.i.d.d.d.d.d.R.Y.Y.Y.Y.Y.R.R.R.i.i.d.d.d.d.d.R.Y.Y.Y.Y.Y.R.R.R.i.i.d.d.d.d.d.R.R.@+@+@+@+@+@+p.! ! C { Y.R.G+G+G+G+G+G+^ & #+^ G+  ! ^ C G+G+G+G+  B h.h.h.i.i.i.i.h.h.J.B   G+",
"G+G+G+G+u+v+u+s+#+Y.R.Y.R.G+G+G+G+G+G+G+- n+n+- q+n+n+- - G+G+G+G+G+G+G+- n+n+- q+n+n+- - G+G+G+G+G+G+G+- n+n+- c @ @ & & % % - G+G+G+G+- n+n+- c @ @ & & % % - G+G+G+G+- n+n+- c @ @ & & % % - G+G+G+G+G+G+G+G+G+G+G+G+G+G+G+G+Y.R.Y.X.X.X.R.R.R.R.R.R.R.R.d.R.Y.R.Y.X.X.X.R.R.R.R.R.R.R.R.d.R.Y.R.Y.X.X.X.R.R.R.R.R.R.R.R.d.R.R.R.R.R.R.R.R.R.R.C , ! C ^ ^ G+G+G+G+^ & #+~.  G+G+  ! ^ ! G+G+G+    v J.h.h.h.h.h.h.J.v     G+",
"G+G+G+G+#+t+s+r+& Y.R.Y.-.G+G+G+G+G+G+G+G+- n+- n+- - G+G+G+G+G+G+G+G+G+G+- n+- n+- - G+G+G+G+G+G+G+G+G+G+- - - ).% % % % - - G+G+G+G+G+G+- - - ).% % % % - - G+G+G+G+G+G+- - - ).% % % % - - G+G+G+G+G+G+G+G+G+G+G+G+G+G+G+G+G+u+& & q+q+q+q+q+q+q+q+q+q+q+q+& u+& & q+q+q+q+q+q+q+q+q+q+q+q+& u+& & q+q+q+q+q+q+q+q+q+q+q+q+& G+G+G+G+G+G+G+G+G+C ! , , C ^ m+G+G+C ~.p.m+  G+G+G+G+  ! { , G+G+G+    - B =.=.=.=.B -       G+",
"G+G+G+G+G+R.q+& q+Y.R.-.#.G+G+G+G+G+G+G+G+G+- - - G+G+G+G+G+G+G+G+G+G+G+G+G+- - - G+G+G+G+G+G+G+G+G+G+G+G+G+G+G+- ).).- - G+G+G+G+G+G+G+G+G+G+G+- ).).- - G+G+G+G+G+G+G+G+G+G+G+- ).).- - G+G+G+G+G+G+G+G+G+G+G+G+G+G+G+G+G+G+G+G+G+w+w+w+w+w+w+w+w+w+w+w+w+w+G+G+G+w+w+w+w+w+w+w+w+w+w+w+w+w+G+G+G+w+w+w+w+w+w+w+w+w+w+w+w+w+G+G+G+G+G+G+G+G+G+G+G+G+C ! , ! ! G+G+C { ~., G+G+G+G+G+  , !   G+G+G+G+                    G+G+G+",
"G+G+G+G+G+G+d.-.#.#.#.-.G+G+G+G+G+G+G+G+G+G+G+G+G+G+G+G+G+G+G+G+G+G+G+G+G+G+G+G+G+G+G+G+G+G+G+G+G+G+G+G+G+G+G+G+G+- - G+G+G+G+G+G+G+G+G+G+G+G+G+G+- - G+G+G+G+G+G+G+G+G+G+G+G+G+G+- - G+G+G+G+G+G+G+G+G+G+G+G+G+G+G+G+G+G+G+G+G+G+G+G+G+G+G+G+G+G+G+G+G+G+G+G+G+G+G+G+G+G+G+G+G+G+G+G+G+G+G+G+G+G+G+G+G+G+G+G+G+G+G+G+G+G+G+G+G+G+G+G+G+G+G+G+G+G+G+G+G+G+,   , G+G+  ! , G+G+G+G+G+G+      G+G+G+G+G+G+G+G+G+G+G+G+G+G+G+G+G+G+"};
